<svg width="1429.503125px" height="184.4px" xmlns="http://www.w3.org/2000/svg" viewBox="-464.7515625 -17.200000000000003 1429.503125 184.4" style="background: none;" preserveAspectRatio="xMidYMid"><defs><filter id="editing-neon" x="-100%" y="-100%" width="300%" height="300%"><feFlood flood-color="#33ff33" result="flood"></feFlood><feComposite operator="in" in="flood" in2="SourceAlpha" result="color"></feComposite><feFlood flood-color="#33ff33" result="flood2"></feFlood><feComposite operator="in" in="flood2" in2="SourceAlpha" result="color2"></feComposite><feMorphology operator="dilate" radius="2" in="color" result="dilate"></feMorphology><feGaussianBlur stdDeviation="6" in="color" result="blur1"></feGaussianBlur><feGaussianBlur stdDeviation="2.5" in="color" result="blur2"></feGaussianBlur><feGaussianBlur stdDeviation="1" in="SourceAlpha" result="blur3"></feGaussianBlur><feGaussianBlur stdDeviation="6" in="dilate" result="blur4"></feGaussianBlur><feConvolveMatrix in="color2" result="conv" order="3,3" divisor="1" kernelMatrix="1 1 1  1 1 1  1 1 1"></feConvolveMatrix><feMerge><feMergeNode in="blur1"></feMergeNode><feMergeNode in="blur2"></feMergeNode><feMergeNode in="blur4"></feMergeNode><feMergeNode in="blur3"></feMergeNode><feMergeNode in="blur3"></feMergeNode><feMergeNode in="blur3"></feMergeNode><feMergeNode in="blur3"></feMergeNode><feMergeNode in="conv"></feMergeNode><feMergeNode in="SourceGraphic"></feMergeNode></feMerge></filter></defs><g filter="url(#editing-neon)"><g transform="translate(-265.03995728492737, 114.64500141143799)"><path d="M0.49-29.54L0.49-37.16L41.65-57.81L41.65-48.78L8.54-33.40L41.65-18.02L41.65-8.98L0.49-29.54ZM48.88 0L48.88 0L48.88 0Q48.88 0 48.88 0ZM73.24-65.58L73.24-74.02L97.27-74.02L97.27-65.58L90.23-65.58L104.15-41.80L119.04-65.58L111.33-65.58L111.33-74.02L135.35-74.02L135.35-65.58L129.05-65.58L108.25-34.03L108.25-8.40L115.87-8.40L115.87 0L91.85 0L91.85-8.40L98.63-8.40L98.63-34.28L79.00-65.58L73.24-65.58ZM141.06-25.29L141.06-25.29L141.06-25.29Q141.11-31.30 142.99-36.23L142.99-36.23L142.99-36.23Q144.87-41.16 148.24-44.70L148.24-44.70L148.24-44.70Q151.61-48.24 156.25-50.15L156.25-50.15L156.25-50.15Q160.89-52.05 166.46-52.05L166.46-52.05L166.46-52.05Q172.07-52.05 176.73-50.15L176.73-50.15L176.73-50.15Q181.40-48.24 184.72-44.75L184.72-44.75L184.72-44.75Q188.04-41.26 189.89-36.33L189.89-36.33L189.89-36.33Q191.75-31.40 191.75-25.39L191.75-25.39L191.75-25.39Q191.75-19.48 189.89-14.53L189.89-14.53L189.89-14.53Q188.04-9.57 184.72-6.01L184.72-6.01L184.72-6.01Q181.40-2.44 176.73-0.46L176.73-0.46L176.73-0.46Q172.07 1.51 166.46 1.51L166.46 1.51L166.46 1.51Q160.74 1.51 156.10-0.44L156.10-0.44L156.10-0.44Q151.46-2.39 148.14-5.93L148.14-5.93L148.14-5.93Q144.82-9.47 142.97-14.40L142.97-14.40L142.97-14.40Q141.11-19.34 141.06-25.29ZM150.68-25.29L150.68-25.29L150.68-25.29Q150.68-20.95 151.93-17.43L151.93-17.43L151.93-17.43Q153.17-13.92 155.35-11.45L155.35-11.45L155.35-11.45Q157.52-8.98 160.38-7.64L160.38-7.64L160.38-7.64Q163.23-6.30 166.46-6.30L166.46-6.30L166.46-6.30Q169.82-6.30 172.73-7.62L172.73-7.62L172.73-7.62Q175.63-8.94 177.78-11.40L177.78-11.40L177.78-11.40Q179.93-13.87 181.15-17.38L181.15-17.38L181.15-17.38Q182.37-20.90 182.37-25.29L182.37-25.29L182.37-25.29Q182.37-29.88 181.15-33.45L181.15-33.45L181.15-33.45Q179.93-37.01 177.81-39.40L177.81-39.40L177.81-39.40Q175.68-41.80 172.75-43.02L172.75-43.02L172.75-43.02Q169.82-44.24 166.46-44.24L166.46-44.24L166.46-44.24Q163.23-44.24 160.38-43.02L160.38-43.02L160.38-43.02Q157.52-41.80 155.35-39.40L155.35-39.40L155.35-39.40Q153.17-37.01 151.93-33.45L151.93-33.45L151.93-33.45Q150.68-29.88 150.68-25.29ZM232.03-42.19L232.03-50.59L248.34-50.59L248.34-8.40L253.96-8.40L253.96 0L239.21 0L239.21-4.69L239.21-4.69Q235.79-2.05 231.76-0.59L231.76-0.59L231.76-0.59Q227.73 0.88 223.14 0.88L223.14 0.88L223.14 0.88Q219.34 0.88 216.24-0.22L216.24-0.22L216.24-0.22Q213.13-1.32 210.96-3.64L210.96-3.64L210.96-3.64Q208.79-5.96 207.62-9.52L207.62-9.52L207.62-9.52Q206.45-13.09 206.45-18.02L206.45-18.02L206.45-42.19L199.61-42.19L199.61-50.59L215.92-50.59L215.92-19.09L215.92-19.09Q215.92-13.28 218.60-10.30L218.60-10.30L218.60-10.30Q221.29-7.32 226.32-7.32L226.32-7.32L226.32-7.32Q229.30-7.32 232.59-8.40L232.59-8.40L232.59-8.40Q235.89-9.47 238.82-11.38L238.82-11.38L238.82-42.19L232.03-42.19ZM275.49-77.78L273.14-51.71L264.40-51.71L264.40-77.00L275.49-77.78ZM320.46-50.88L320.46-39.89L311.18-39.89L311.18-43.02L311.18-43.02Q309.57-43.02 307.89-42.41L307.89-42.41L307.89-42.41Q306.20-41.80 304.74-40.55L304.74-40.55L304.74-40.55Q303.27-39.31 302.17-37.38L302.17-37.38L302.17-37.38Q301.07-35.45 300.59-32.81L300.59-32.81L300.59-8.40L309.18-8.40L309.18 0L284.08 0L284.08-8.40L291.06-8.40L291.11-42.19L284.08-42.19L284.08-50.59L300.24-50.59L300.24-43.60L300.24-43.60Q301.12-45.17 302.22-46.51L302.22-46.51L302.22-46.51Q303.32-47.85 304.66-48.85L304.66-48.85L304.66-48.85Q306.01-49.85 307.64-50.42L307.64-50.42L307.64-50.42Q309.28-50.98 311.18-50.98L311.18-50.98L311.18-50.98Q313.72-50.98 315.97-50.98L315.97-50.98L315.97-50.98Q318.21-50.98 320.46-50.88L320.46-50.88ZM375.98-24.12L339.55-24.12L339.55-24.12Q339.55-21.97 339.87-20.19L339.87-20.19L339.87-20.19Q340.19-18.41 340.77-16.80L340.77-16.80L340.77-16.80Q342.58-11.91 346.56-9.45L346.56-9.45L346.56-9.45Q350.54-6.98 355.57-6.98L355.57-6.98L355.57-6.98Q359.52-6.98 363.26-8.08L363.26-8.08L363.26-8.08Q366.99-9.18 371.09-11.52L371.09-11.52L374.76-5.32L374.76-5.32Q369.78-1.90 364.75-0.24L364.75-0.24L364.75-0.24Q359.72 1.42 354.30 1.42L354.30 1.42L354.30 1.42Q349.17 1.42 344.80-0.29L344.80-0.29L344.80-0.29Q340.43-2.00 337.28-5.37L337.28-5.37L337.28-5.37Q334.13-8.74 332.35-13.77L332.35-13.77L332.35-13.77Q330.57-18.80 330.57-25.49L330.57-25.49L330.57-25.49Q330.57-30.91 332.08-35.72L332.08-35.72L332.08-35.72Q333.59-40.53 336.60-44.12L336.60-44.12L336.60-44.12Q339.60-47.71 344.04-49.80L344.04-49.80L344.04-49.80Q348.49-51.90 354.39-51.90L354.39-51.90L354.39-51.90Q360.11-51.90 363.94-50.17L363.94-50.17L363.94-50.17Q367.77-48.44 370.19-45.58L370.19-45.58L370.19-45.58Q372.61-42.72 373.85-39.06L373.85-39.06L373.85-39.06Q375.10-35.40 375.59-31.59L375.59-31.59L375.59-31.59Q375.83-29.74 375.90-27.83L375.90-27.83L375.90-27.83Q375.98-25.93 375.98-24.12L375.98-24.12ZM353.76-44.29L353.76-44.29L353.76-44.29Q350.59-44.29 348.22-43.38L348.22-43.38L348.22-43.38Q345.85-42.48 344.19-40.80L344.19-40.80L344.19-40.80Q342.53-39.11 341.53-36.67L341.53-36.67L341.53-36.67Q340.53-34.23 340.04-31.20L340.04-31.20L366.26-31.20L366.26-31.20Q366.06-34.03 365.36-36.43L365.36-36.43L365.36-36.43Q364.65-38.82 363.18-40.58L363.18-40.58L363.18-40.58Q361.72-42.33 359.42-43.31L359.42-43.31L359.42-43.31Q357.13-44.29 353.76-44.29ZM383.45 0L383.45 0L383.45 0Q383.45 0 383.45 0ZM456.10 0L456.10-8.40L462.26-8.40L456.40-25.20L427.93-25.20L422.22-8.40L429.83-8.40L429.83 0L405.81 0L405.81-8.40L412.26-8.40L435.30-74.02L449.71-74.02L472.71-8.40L480.13-8.40L480.13 0L456.10 0ZM442.04-66.41L430.71-33.30L453.56-33.30L442.04-66.41ZM481.59-42.19L481.59-50.59L497.61-50.59L497.61-42.19L495.26-42.19L504.10-9.91L516.21-50.59L523.83-50.59L535.40-10.01L544.63-42.19L541.70-42.19L541.70-50.59L557.71-50.59L557.71-42.19L553.37-42.19L539.50 0.78L531.10 0.78L519.63-39.60L508.20 0.78L499.71 0.78L485.94-42.19L481.59-42.19ZM610.60-24.12L574.17-24.12L574.17-24.12Q574.17-21.97 574.49-20.19L574.49-20.19L574.49-20.19Q574.80-18.41 575.39-16.80L575.39-16.80L575.39-16.80Q577.20-11.91 581.18-9.45L581.18-9.45L581.18-9.45Q585.16-6.98 590.19-6.98L590.19-6.98L590.19-6.98Q594.14-6.98 597.88-8.08L597.88-8.08L597.88-8.08Q601.61-9.18 605.71-11.52L605.71-11.52L609.38-5.32L609.38-5.32Q604.39-1.90 599.37-0.24L599.37-0.24L599.37-0.24Q594.34 1.42 588.92 1.42L588.92 1.42L588.92 1.42Q583.79 1.42 579.42-0.29L579.42-0.29L579.42-0.29Q575.05-2.00 571.90-5.37L571.90-5.37L571.90-5.37Q568.75-8.74 566.97-13.77L566.97-13.77L566.97-13.77Q565.19-18.80 565.19-25.49L565.19-25.49L565.19-25.49Q565.19-30.91 566.70-35.72L566.70-35.72L566.70-35.72Q568.21-40.53 571.22-44.12L571.22-44.12L571.22-44.12Q574.22-47.71 578.66-49.80L578.66-49.80L578.66-49.80Q583.11-51.90 589.01-51.90L589.01-51.90L589.01-51.90Q594.73-51.90 598.56-50.17L598.56-50.17L598.56-50.17Q602.39-48.44 604.81-45.58L604.81-45.58L604.81-45.58Q607.23-42.72 608.47-39.06L608.47-39.06L608.47-39.06Q609.72-35.40 610.21-31.59L610.21-31.59L610.21-31.59Q610.45-29.74 610.52-27.83L610.52-27.83L610.52-27.83Q610.60-25.93 610.60-24.12L610.60-24.12ZM588.38-44.29L588.38-44.29L588.38-44.29Q585.21-44.29 582.84-43.38L582.84-43.38L582.84-43.38Q580.47-42.48 578.81-40.80L578.81-40.80L578.81-40.80Q577.15-39.11 576.15-36.67L576.15-36.67L576.15-36.67Q575.15-34.23 574.66-31.20L574.66-31.20L600.88-31.20L600.88-31.20Q600.68-34.03 599.98-36.43L599.98-36.43L599.98-36.43Q599.27-38.82 597.80-40.58L597.80-40.58L597.80-40.58Q596.34-42.33 594.04-43.31L594.04-43.31L594.04-43.31Q591.75-44.29 588.38-44.29ZM652.15-37.01L652.15-37.01Q652.15-39.06 651.20-40.50L651.20-40.50L651.20-40.50Q650.24-41.94 648.73-42.85L648.73-42.85L648.73-42.85Q647.22-43.75 645.36-44.17L645.36-44.17L645.36-44.17Q643.51-44.58 641.75-44.58L641.75-44.58L641.75-44.58Q639.79-44.58 638.16-44.14L638.16-44.14L638.16-44.14Q636.52-43.70 635.35-42.87L635.35-42.87L635.35-42.87Q634.18-42.04 633.52-40.84L633.52-40.84L633.52-40.84Q632.86-39.65 632.86-38.18L632.86-38.18L632.86-38.18Q632.86-35.64 634.40-34.16L634.40-34.16L634.40-34.16Q635.94-32.67 639.55-31.40L639.55-31.40L649.27-27.98L649.27-27.98Q655.52-25.88 658.40-22.27L658.40-22.27L658.40-22.27Q661.28-18.65 661.28-13.62L661.28-13.62L661.28-13.62Q661.28-10.25 659.94-7.45L659.94-7.45L659.94-7.45Q658.59-4.64 656.13-2.66L656.13-2.66L656.13-2.66Q653.66-0.68 650.20 0.42L650.20 0.42L650.20 0.42Q646.73 1.51 642.48 1.51L642.48 1.51L642.48 1.51Q636.57 1.51 632.86-0.39L632.86-0.39L632.86-0.39Q629.15-2.29 627.15-5.42L627.15-5.42L622.07-5.42L622.07-13.82L632.18-13.82L632.18-13.82Q632.18-11.72 633.08-10.23L633.08-10.23L633.08-10.23Q633.98-8.74 635.47-7.81L635.47-7.81L635.47-7.81Q636.96-6.88 638.84-6.45L638.84-6.45L638.84-6.45Q640.72-6.01 642.68-6.01L642.68-6.01L642.68-6.01Q644.58-6.01 646.34-6.47L646.34-6.47L646.34-6.47Q648.10-6.93 649.44-7.84L649.44-7.84L649.44-7.84Q650.78-8.74 651.56-10.01L651.56-10.01L651.56-10.01Q652.34-11.28 652.34-12.89L652.34-12.89L652.34-12.89Q652.34-15.33 650.76-17.04L650.76-17.04L650.76-17.04Q649.17-18.75 645.36-20.12L645.36-20.12L635.69-23.73L635.69-23.73Q629.79-25.83 626.93-29.08L626.93-29.08L626.93-29.08Q624.07-32.32 624.07-37.21L624.07-37.21L624.07-37.21Q624.07-40.43 625.27-43.16L625.27-43.16L625.27-43.16Q626.46-45.90 628.74-47.88L628.74-47.88L628.74-47.88Q631.01-49.85 634.28-50.98L634.28-50.98L634.28-50.98Q637.55-52.10 641.75-52.10L641.75-52.10L641.75-52.10Q647.17-52.10 650.83-50.59L650.83-50.59L650.83-50.59Q654.49-49.07 657.42-45.41L657.42-45.41L662.16-45.41L662.16-37.01L652.15-37.01ZM670.75-25.29L670.75-25.29L670.75-25.29Q670.80-31.30 672.68-36.23L672.68-36.23L672.68-36.23Q674.56-41.16 677.93-44.70L677.93-44.70L677.93-44.70Q681.30-48.24 685.94-50.15L685.94-50.15L685.94-50.15Q690.58-52.05 696.14-52.05L696.14-52.05L696.14-52.05Q701.76-52.05 706.42-50.15L706.42-50.15L706.42-50.15Q711.08-48.24 714.40-44.75L714.40-44.75L714.40-44.75Q717.72-41.26 719.58-36.33L719.58-36.33L719.58-36.33Q721.44-31.40 721.44-25.39L721.44-25.39L721.44-25.39Q721.44-19.48 719.58-14.53L719.58-14.53L719.58-14.53Q717.72-9.57 714.40-6.01L714.40-6.01L714.40-6.01Q711.08-2.44 706.42-0.46L706.42-0.46L706.42-0.46Q701.76 1.51 696.14 1.51L696.14 1.51L696.14 1.51Q690.43 1.51 685.79-0.44L685.79-0.44L685.79-0.44Q681.15-2.39 677.83-5.93L677.83-5.93L677.83-5.93Q674.51-9.47 672.66-14.40L672.66-14.40L672.66-14.40Q670.80-19.34 670.75-25.29ZM680.37-25.29L680.37-25.29L680.37-25.29Q680.37-20.95 681.62-17.43L681.62-17.43L681.62-17.43Q682.86-13.92 685.03-11.45L685.03-11.45L685.03-11.45Q687.21-8.98 690.06-7.64L690.06-7.64L690.06-7.64Q692.92-6.30 696.14-6.30L696.14-6.30L696.14-6.30Q699.51-6.30 702.42-7.62L702.42-7.62L702.42-7.62Q705.32-8.94 707.47-11.40L707.47-11.40L707.47-11.40Q709.62-13.87 710.84-17.38L710.84-17.38L710.84-17.38Q712.06-20.90 712.06-25.29L712.06-25.29L712.06-25.29Q712.06-29.88 710.84-33.45L710.84-33.45L710.84-33.45Q709.62-37.01 707.50-39.40L707.50-39.40L707.50-39.40Q705.37-41.80 702.44-43.02L702.44-43.02L702.44-43.02Q699.51-44.24 696.14-44.24L696.14-44.24L696.14-44.24Q692.92-44.24 690.06-43.02L690.06-43.02L690.06-43.02Q687.21-41.80 685.03-39.40L685.03-39.40L685.03-39.40Q682.86-37.01 681.62-33.45L681.62-33.45L681.62-33.45Q680.37-29.88 680.37-25.29ZM731.25-42.19L731.25-50.59L747.36-50.59L747.36-44.68L747.46-44.68L747.46-44.68Q749.12-46.09 750.95-47.34L750.95-47.34L750.95-47.34Q752.78-48.58 754.79-49.51L754.79-49.51L754.79-49.51Q756.79-50.44 758.96-50.98L758.96-50.98L758.96-50.98Q761.13-51.51 763.48-51.51L763.48-51.51L763.48-51.51Q768.95-51.51 772.90-49.49L772.90-49.49L772.90-49.49Q776.86-47.46 779.00-43.16L779.00-43.16L779.00-43.16Q780.86-44.82 782.91-46.36L782.91-46.36L782.91-46.36Q784.96-47.90 787.18-49.02L787.18-49.02L787.18-49.02Q789.40-50.15 791.85-50.83L791.85-50.83L791.85-50.83Q794.29-51.51 796.92-51.51L796.92-51.51L796.92-51.51Q801.03-51.51 804.30-50.39L804.30-50.39L804.30-50.39Q807.57-49.27 809.86-46.97L809.86-46.97L809.86-46.97Q812.16-44.68 813.35-41.09L813.35-41.09L813.35-41.09Q814.55-37.50 814.55-32.62L814.55-32.62L814.55-8.40L821.58-8.40L821.58 0L797.95 0L797.95-8.40L805.08-8.40L805.08-31.49L805.08-31.49Q805.08-37.30 802.15-40.31L802.15-40.31L802.15-40.31Q799.22-43.31 793.70-43.31L793.70-43.31L793.70-43.31Q790.43-43.31 787.01-41.75L787.01-41.75L787.01-41.75Q783.59-40.19 781.15-37.79L781.15-37.79L781.15-8.40L788.13-8.40L788.13 0L764.55 0L764.55-8.40L771.68-8.40L771.68-31.49L771.68-31.49Q771.68-37.30 768.73-40.31L768.73-40.31L768.73-40.31Q765.77-43.31 760.25-43.31L760.25-43.31L760.25-43.31Q757.08-43.31 753.86-41.80L753.86-41.80L753.86-41.80Q750.63-40.28 747.75-38.04L747.75-38.04L747.75-8.40L754.88-8.40L754.88 0L731.25 0L731.25-8.40L738.28-8.40L738.28-42.19L731.25-42.19ZM876.37-24.12L839.94-24.12L839.94-24.12Q839.94-21.97 840.26-20.19L840.26-20.19L840.26-20.19Q840.58-18.41 841.16-16.80L841.16-16.80L841.16-16.80Q842.97-11.91 846.95-9.45L846.95-9.45L846.95-9.45Q850.93-6.98 855.96-6.98L855.96-6.98L855.96-6.98Q859.91-6.98 863.65-8.08L863.65-8.08L863.65-8.08Q867.38-9.18 871.48-11.52L871.48-11.52L875.15-5.32L875.15-5.32Q870.17-1.90 865.14-0.24L865.14-0.24L865.14-0.24Q860.11 1.42 854.69 1.42L854.69 1.42L854.69 1.42Q849.56 1.42 845.19-0.29L845.19-0.29L845.19-0.29Q840.82-2.00 837.67-5.37L837.67-5.37L837.67-5.37Q834.52-8.74 832.74-13.77L832.74-13.77L832.74-13.77Q830.96-18.80 830.96-25.49L830.96-25.49L830.96-25.49Q830.96-30.91 832.47-35.72L832.47-35.72L832.47-35.72Q833.98-40.53 836.99-44.12L836.99-44.12L836.99-44.12Q839.99-47.71 844.43-49.80L844.43-49.80L844.43-49.80Q848.88-51.90 854.79-51.90L854.79-51.90L854.79-51.90Q860.50-51.90 864.33-50.17L864.33-50.17L864.33-50.17Q868.16-48.44 870.58-45.58L870.58-45.58L870.58-45.58Q873.00-42.72 874.24-39.06L874.24-39.06L874.24-39.06Q875.49-35.40 875.98-31.59L875.98-31.59L875.98-31.59Q876.22-29.74 876.29-27.83L876.29-27.83L876.29-27.83Q876.37-25.93 876.37-24.12L876.37-24.12ZM854.15-44.29L854.15-44.29L854.15-44.29Q850.98-44.29 848.61-43.38L848.61-43.38L848.61-43.38Q846.24-42.48 844.58-40.80L844.58-40.80L844.58-40.80Q842.92-39.11 841.92-36.67L841.92-36.67L841.92-36.67Q840.92-34.23 840.43-31.20L840.43-31.20L866.65-31.20L866.65-31.20Q866.46-34.03 865.75-36.43L865.75-36.43L865.75-36.43Q865.04-38.82 863.57-40.58L863.57-40.58L863.57-40.58Q862.11-42.33 859.81-43.31L859.81-43.31L859.81-43.31Q857.52-44.29 854.15-44.29ZM894.14-5.91L894.14-5.91L894.14-5.91Q894.14-7.18 894.65-8.33L894.65-8.33L894.65-8.33Q895.17-9.47 896.02-10.33L896.02-10.33L896.02-10.33Q896.88-11.18 898.05-11.69L898.05-11.69L898.05-11.69Q899.22-12.21 900.54-12.21L900.54-12.21L900.54-12.21Q901.81-12.21 902.95-11.69L902.95-11.69L902.95-11.69Q904.10-11.18 904.96-10.33L904.96-10.33L904.96-10.33Q905.81-9.47 906.32-8.33L906.32-8.33L906.32-8.33Q906.84-7.18 906.84-5.91L906.84-5.91L906.84-5.91Q906.84-4.59 906.32-3.42L906.32-3.42L906.32-3.42Q905.81-2.25 904.96-1.34L904.96-1.34L904.96-1.34Q904.10-0.44 902.95 0.07L902.95 0.07L902.95 0.07Q901.81 0.59 900.54 0.59L900.54 0.59L900.54 0.59Q899.22 0.59 898.05 0.07L898.05 0.07L898.05 0.07Q896.88-0.44 896.02-1.34L896.02-1.34L896.02-1.34Q895.17-2.25 894.65-3.42L894.65-3.42L894.65-3.42Q894.14-4.59 894.14-5.91ZM896.14-20.02L894.14-77.00L906.84-77.00L904.83-20.02L896.14-20.02ZM917.14 0L917.14 0L917.14 0Q917.14 0 917.14 0ZM940.82 1.42L970.12-76.61L978.61-76.61L949.32 1.42L940.82 1.42ZM1029.59-37.16L1029.59-29.54L988.43-8.98L988.43-18.02L1021.53-33.40L988.43-48.78L988.43-57.81L1029.59-37.16Z" fill="none" stroke="#f4ffd7" stroke-width="1"></path></g></g><style>text {
  font-size: 64px;
  font-family: Arial Black;
  dominant-baseline: central;
  text-anchor: middle;
}</style></svg>